<?xml version="1.0" standalone="no"?>
<!DOCTYPE svg PUBLIC "-//W3C//DTD SVG 20010904//EN"
 "http://www.w3.org/TR/2001/REC-SVG-20010904/DTD/svg10.dtd">
<svg version="1.0" xmlns="http://www.w3.org/2000/svg"
 width="320.000000pt" height="320.000000pt" viewBox="0 0 320.000000 320.000000"
 preserveAspectRatio="xMidYMid meet">
<metadata>
Created by potrace 1.11, written by Peter Selinger 2001-2013
</metadata>
<g transform="translate(0.000000,320.000000) scale(0.100000,-0.100000)"
fill="#000000" stroke="none">
<path d="M1711 3129 c-471 -34 -904 -235 -1226 -570 -179 -186 -303 -380 -398
-619 -79 -198 -87 -244 -87 -474 l1 -201 30 65 c34 74 87 160 99 160 4 0 11
-48 14 -107 14 -220 36 -337 100 -522 53 -153 126 -286 215 -391 48 -57 57
-29 20 65 -37 96 -79 273 -79 335 l0 45 21 -30 c11 -16 33 -56 50 -87 29 -57
108 -166 220 -303 77 -95 210 -220 316 -297 102 -73 265 -158 304 -158 26 0
22 6 -55 83 -92 92 -160 195 -218 330 -47 107 -103 276 -111 329 l-6 38 52
-31 c67 -40 146 -76 227 -105 36 -12 58 -23 49 -23 -9 -1 -42 8 -74 19 -32 11
-63 20 -69 20 -16 -1 90 -95 161 -143 34 -23 63 -45 63 -49 0 -4 -28 -5 -63
-1 -61 5 -65 4 -85 -22 -12 -15 -19 -32 -15 -38 4 -7 8 -6 11 3 8 23 23 29 51
19 14 -6 36 -7 49 -4 21 5 23 3 17 -12 -5 -10 -11 -51 -15 -91 -4 -39 -9 -73
-11 -75 -2 -2 -16 -11 -31 -20 -36 -23 -35 -35 2 -29 l30 4 0 -51 0 -52 30 16
c21 11 30 23 30 40 0 21 5 25 28 25 15 0 49 13 75 30 l47 30 0 75 c0 85 -8 81
85 46 l49 -19 2 -58 c0 -35 -1 -42 -3 -18 -3 35 -9 44 -32 54 -21 8 -34 8 -53
-1 -22 -10 -27 -19 -30 -61 -1 -28 1 -53 7 -56 21 -13 165 -9 176 5 9 10 8 13
-5 13 -12 0 -16 10 -16 45 0 34 4 45 16 45 8 0 12 5 9 10 -3 6 1 10 9 10 8 0
18 -4 21 -10 3 -5 15 -10 25 -10 12 0 20 -8 22 -22 2 -15 18 -30 48 -45 l45
-23 -36 6 c-35 5 -79 -8 -79 -24 0 -11 102 -11 122 -1 10 5 18 21 18 35 0 21
-8 29 -40 41 -22 9 -40 20 -40 26 0 5 8 6 17 2 10 -3 45 -9 78 -12 56 -5 62
-8 74 -35 38 -85 166 -90 234 -9 l27 33 0 -41 c0 -29 5 -41 18 -44 14 -4 130
-3 153 2 3 1 5 21 5 46 -1 24 4 44 9 45 6 0 10 -22 10 -48 0 -40 3 -47 20 -47
16 0 21 8 23 40 5 68 14 73 26 16 l11 -55 50 -1 c50 -2 85 8 85 24 0 5 -11 6
-25 3 -36 -6 -32 19 6 47 l31 23 -22 23 c-19 20 -26 22 -51 13 -27 -9 -29 -14
-31 -61 l-1 -52 -4 45 c-5 49 -29 86 -47 71 -6 -6 -38 -8 -71 -6 -33 2 -65 -1
-71 -6 -6 -5 -23 -4 -41 3 -26 10 -35 9 -56 -5 -17 -11 -28 -13 -32 -6 -9 13
-10 12 50 34 62 22 235 123 301 176 204 162 268 199 350 199 46 0 55 -4 78
-31 39 -46 37 -117 -6 -171 -30 -39 -114 -88 -149 -88 -26 0 -51 -24 -44 -42
19 -49 139 -62 221 -24 90 42 120 106 111 239 -8 122 -61 194 -176 237 -51 20
-117 17 -184 -9 l-28 -11 31 46 c46 66 87 162 117 272 20 77 26 122 27 217 l1
120 39 40 c52 54 80 100 117 191 36 92 37 153 2 169 -28 12 -44 48 -37 83 4
18 -2 42 -16 70 -13 25 -19 49 -15 62 4 12 -7 56 -28 113 -19 50 -43 121 -53
157 -14 48 -29 76 -61 109 -26 27 -47 41 -52 35 -5 -5 -5 -38 1 -76 6 -41 7
-87 1 -115 l-8 -48 -74 87 c-41 48 -82 90 -91 93 -22 7 -44 50 -36 70 9 23
-62 104 -148 169 -68 51 -196 116 -230 116 -23 0 -20 -17 7 -31 62 -33 199
-180 183 -196 -8 -8 -165 49 -190 68 -16 12 -25 29 -23 42 5 52 -303 207 -320
160 -2 -6 20 -27 49 -46 62 -40 140 -124 136 -146 -3 -16 -21 -18 -133 -12
-27 2 -63 0 -78 -4 -21 -6 -33 -3 -50 13 -39 36 -177 54 -177 23 0 -5 15 -19
34 -30 66 -41 65 -48 -12 -70 -96 -29 -147 -28 -176 4 -31 34 -36 32 -36 -14
0 -51 14 -88 48 -126 15 -17 10 -14 -10 6 -50 50 -62 100 -48 191 17 115 52
167 173 259 168 128 399 174 630 123 45 -10 30 12 -25 36 -44 19 -80 24 -208
30 -85 4 -162 10 -170 12 -8 3 -66 1 -129 -3z m695 -675 c16 -25 29 -51 29
-57 1 -7 5 -11 11 -10 13 2 16 -44 3 -52 -14 -9 -55 38 -67 77 -30 99 -22 115
24 42z m79 -144 c3 -5 -1 -10 -10 -10 -9 0 -13 5 -10 10 3 6 8 10 10 10 2 0 7
-4 10 -10z m-249 -45 c113 -29 169 -56 186 -92 9 -19 22 -29 40 -31 15 -2 32
-10 40 -19 11 -14 9 -15 -22 -8 -53 11 -54 11 -57 -6 -2 -9 8 -30 22 -48 l27
-31 -28 0 c-28 0 -28 0 16 -40 25 -22 63 -45 85 -51 55 -15 59 -19 36 -36 -12
-8 -26 -23 -32 -35 -14 -27 4 -40 38 -27 45 17 52 12 46 -30 -7 -49 10 -60 48
-32 40 30 51 27 44 -12 -9 -46 16 -68 45 -42 20 18 21 18 41 -3 11 -12 23 -22
28 -22 14 0 31 -50 31 -93 0 -24 5 -48 12 -55 20 -20 23 -224 5 -320 -32 -166
-162 -410 -193 -360 -4 5 0 15 7 20 10 7 7 7 -8 3 -23 -6 -33 10 -12 17 7 2 5
11 -7 23 -11 10 -19 23 -19 28 0 6 -9 11 -20 13 -26 4 -51 -42 -33 -63 8 -11
7 -12 -5 -7 -8 3 -18 12 -21 20 -3 8 -12 14 -20 14 -23 0 -26 24 -22 173 3
116 7 149 22 177 23 43 21 33 23 158 l1 104 40 15 c22 9 40 19 40 24 0 4 -39
38 -87 75 -114 89 -183 153 -183 171 0 8 -4 12 -8 9 -14 -8 -69 56 -77 89 l-8
30 -14 -34 c-13 -30 -56 -75 -273 -279 l-74 -70 37 -18 38 -18 -3 -81 -3 -80
-66 -3 -66 -3 -7 62 c-12 118 -8 174 14 194 17 16 20 31 20 107 0 81 -2 88
-20 88 -16 0 -20 7 -20 34 0 19 5 38 11 41 13 9 6 42 -37 179 -19 60 -37 126
-40 147 l-6 37 53 11 c129 25 258 21 395 -14z m320 -42 c-7 -7 -26 7 -26 19 0
6 6 6 15 -2 9 -7 13 -15 11 -17z m-982 -163 c-34 -131 -35 -135 -16 -150 27
-23 36 -77 14 -89 -14 -8 -18 -25 -20 -95 -1 -76 1 -87 18 -96 18 -10 20 -21
20 -109 0 -54 -3 -113 -6 -130 -6 -27 -10 -31 -40 -31 -30 0 -34 -3 -34 -28 0
-22 -28 -62 -44 -62 -8 0 -15 45 -7 54 11 16 11 56 0 56 -5 0 -14 -10 -20 -22
-16 -35 -58 -33 -71 3 -12 36 -38 39 -38 4 0 -14 -5 -25 -11 -25 -6 0 -9 9 -6
19 3 15 1 18 -11 14 -11 -5 -14 -2 -9 10 5 12 1 17 -13 17 -26 0 -44 -34 -30
-59 15 -29 12 -38 -6 -15 -15 19 -15 19 -9 -2 3 -13 -1 -26 -10 -34 -12 -10
-15 -9 -15 6 -1 19 -22 54 -33 54 -7 0 -37 -66 -37 -81 0 -5 7 -6 15 -3 11 5
15 -1 15 -19 0 -14 -7 -28 -16 -31 -23 -9 -27 -8 -21 9 4 8 2 17 -2 19 -5 3
-11 50 -15 103 -19 277 94 544 308 731 53 47 176 126 183 118 1 -1 -13 -63
-33 -136z m1135 56 c12 -15 5 -46 -11 -46 -5 0 -6 5 -3 10 3 6 0 10 -8 10 -8
0 -20 6 -26 14 -12 14 -6 18 30 25 4 0 12 -5 18 -13z m216 -46 c3 -5 15 -10
26 -10 23 0 25 -23 3 -40 -19 -16 -62 -4 -78 23 -8 14 -8 20 4 27 20 13 37 13
45 0z m-169 -108 c-10 -10 -29 15 -21 28 6 9 10 8 17 -4 6 -10 7 -20 4 -24z
m248 -91 c11 -12 14 -21 7 -25 -12 -8 -42 6 -61 28 -11 14 -9 16 12 16 14 0
33 -9 42 -19z m-2209 -251 c-3 -5 -10 -10 -16 -10 -5 0 -9 5 -9 10 0 6 7 10
16 10 8 0 12 -4 9 -10z m1341 -126 c-5 -13 -10 -14 -18 -6 -6 6 -8 18 -4 28 5
13 10 14 18 6 6 -6 8 -18 4 -28z m184 -4 c0 -5 -4 -10 -10 -10 -5 0 -10 5 -10
10 0 6 5 10 10 10 6 0 10 -4 10 -10z m-1033 -207 c-10 -3 -16 -10 -14 -16 6
-19 22 -18 43 2 19 17 22 18 42 2 12 -9 21 -26 20 -38 -3 -30 -12 -29 -37 5
-19 24 -22 25 -34 11 -6 -9 -18 -14 -25 -12 -7 3 -10 -1 -6 -10 7 -19 -14 -33
-29 -18 -29 29 -3 79 43 79 9 0 8 -2 -3 -5z m137 -85 c7 -5 5 -8 -5 -8 -17 0
-32 44 -20 56 3 3 8 -5 10 -18 1 -12 8 -26 15 -30z m64 12 c-9 -33 -13 -38
-24 -29 -20 16 -19 60 1 53 8 -4 15 -1 15 5 0 6 4 11 9 11 5 0 4 -18 -1 -40z
m-114 -38 c-7 -4 -13 -15 -15 -24 -4 -16 -6 -15 -29 3 -14 12 -18 19 -9 16 9
-3 22 -1 30 4 8 5 19 9 24 9 6 0 5 -4 -1 -8z m-186 -18 c29 -8 28 -18 -2 -32
-20 -9 -25 -8 -30 4 -13 34 -8 38 32 28z m117 -5 c11 -16 -1 -22 -30 -15 -14
4 -23 11 -20 16 8 13 42 13 50 -1z m-60 -49 c8 -12 -12 -40 -27 -40 -6 0 -5 7
2 15 9 11 9 15 1 15 -7 0 -9 5 -6 10 8 13 22 13 30 0z m155 -10 c0 -5 -2 -10
-4 -10 -3 0 -8 5 -11 10 -3 6 -1 10 4 10 6 0 11 -4 11 -10z m-156 -60 c22 0
20 -27 -3 -40 -26 -13 -28 -13 -34 8 -3 9 -13 35 -22 57 l-17 39 30 -32 c16
-18 37 -32 46 -32z m32 34 c-3 -9 -6 -17 -6 -20 0 -2 -7 -1 -15 2 -12 5 -13
10 -4 20 16 19 33 18 25 -2z m110 -5 c4 -7 10 -7 16 -1 13 13 34 -5 40 -34 2
-12 14 -21 33 -24 l30 -5 3 -86 c3 -83 2 -88 -25 -116 -15 -15 -29 -35 -31
-43 -8 -34 -23 -33 -61 4 -46 45 -62 82 -28 63 12 -7 31 -22 42 -34 11 -13 24
-23 28 -23 15 0 6 31 -13 47 -26 22 -26 37 -1 23 21 -11 37 2 26 19 -3 5 2 16
11 25 8 9 14 24 12 33 -1 10 1 23 5 30 4 6 2 15 -4 19 -7 4 -23 -6 -38 -24
-14 -16 -36 -33 -48 -37 -18 -5 -24 -1 -29 20 -3 14 -9 24 -12 21 -3 -3 -11
-1 -19 6 -26 21 -25 -1 1 -27 26 -26 26 -28 9 -41 -10 -7 -21 -14 -25 -14 -13
0 -9 28 4 32 6 2 8 10 4 16 -11 17 -26 15 -26 -5 0 -14 -5 -12 -26 8 l-25 24
32 26 c22 18 30 31 26 42 -4 11 3 26 21 42 28 26 56 32 68 14z m1283 -196 c1
10 31 -18 31 -28 0 -4 -9 -5 -20 -2 -14 4 -30 -3 -47 -21 l-26 -26 -8 22 c-10
27 5 56 36 70 15 7 22 5 27 -7 4 -9 7 -12 7 -8z m-1254 7 c3 -5 1 -10 -4 -10
-6 0 -11 5 -11 10 0 6 2 10 4 10 3 0 8 -4 11 -10z m1165 -61 c0 -5 -4 -9 -8
-9 -5 0 -9 7 -9 15 0 8 4 12 9 9 4 -3 8 -9 8 -15z m-1283 -155 c-3 -3 -12 -4
-19 -1 -8 3 -5 6 6 6 11 1 17 -2 13 -5z m140 -198 c2 -1 -2 -18 -7 -37 -6 -18
-10 -60 -10 -92 0 -64 -10 -74 -53 -58 -26 10 -27 12 -27 99 0 49 3 92 7 96 6
6 82 -1 90 -8z m723 -132 c21 -20 1 -48 -36 -52 -29 -2 -94 30 -94 46 0 14 62
31 90 26 14 -3 32 -12 40 -20z m-592 -32 c-5 -45 -28 -38 -28 8 0 37 2 41 16
30 8 -7 14 -25 12 -38z m730 4 c2 -28 0 -37 -10 -34 -7 3 -14 22 -16 42 -2 28
0 37 10 34 7 -3 14 -22 16 -42z m62 3 c0 -24 -4 -38 -10 -34 -5 3 -10 22 -10
41 0 19 5 34 10 34 6 0 10 -18 10 -41z m245 32 c3 -5 1 -12 -5 -16 -5 -3 -10
1 -10 9 0 18 6 21 15 7z"/>
<path d="M2190 2109 c0 -5 5 -7 10 -4 6 3 10 8 10 11 0 2 -4 4 -10 4 -5 0 -10
-5 -10 -11z"/>
<path d="M2291 2024 c0 -11 3 -14 6 -6 3 7 2 16 -1 19 -3 4 -6 -2 -5 -13z"/>
<path d="M2733 973 c-13 -2 -23 -10 -23 -16 0 -7 -4 -6 -10 3 -5 8 -10 10 -10
4 0 -20 13 -23 41 -8 16 8 29 17 29 19 0 3 -1 4 -2 4 -2 -1 -13 -4 -25 -6z"/>
<path d="M2720 910 c0 -5 5 -10 10 -10 6 0 10 5 10 10 0 6 -4 10 -10 10 -5 0
-10 -4 -10 -10z"/>
<path d="M2697 364 c-41 -22 -37 -59 8 -74 49 -16 56 -33 11 -25 -23 5 -42 3
-51 -5 -24 -20 -18 -25 39 -27 42 -1 58 2 71 17 23 26 14 45 -35 70 -49 25
-50 30 -7 23 24 -4 37 0 47 13 14 16 13 17 -3 11 -10 -4 -26 -3 -35 2 -11 6
-27 4 -45 -5z"/>
</g>
</svg>
